<?xml version="1.0" standalone="no"?>
<!DOCTYPE svg PUBLIC "-//W3C//DTD SVG 20010904//EN"
 "http://www.w3.org/TR/2001/REC-SVG-20010904/DTD/svg10.dtd">
<svg version="1.0" xmlns="http://www.w3.org/2000/svg"
 width="1280.000000pt" height="1005.000000pt" viewBox="0 0 1280.000000 1005.000000"
 preserveAspectRatio="xMidYMid meet">
<metadata>
Created by potrace 1.16, written by Peter Selinger 2001-2019
</metadata>
<g transform="translate(0.000000,1005.000000) scale(0.100000,-0.100000)"
fill="#525252" stroke="#525252">
<path d="M680 8680 l0 -510 5720 0 5720 0 0 510 0 510 -5720 0 -5720 0 0 -510z"/>
<path d="M680 4840 l0 -510 4350 0 4350 0 -2 508 -3 507 -4347 3 -4348 2 0
-510z"/>
<path d="M680 995 l0 -505 2975 0 2975 0 0 505 0 505 -2975 0 -2975 0 0 -505z"/>
</g>
</svg>
